<?xml version="1.0" encoding="UTF-8" standalone="no"?>
<!-- Generator: Adobe Illustrator 19.0.0, SVG Export Plug-In . SVG Version: 6.00 Build 0)  -->

<svg
   xmlns:dc="http://purl.org/dc/elements/1.1/"
   xmlns:cc="http://creativecommons.org/ns#"
   xmlns:rdf="http://www.w3.org/1999/02/22-rdf-syntax-ns#"
   xmlns:svg="http://www.w3.org/2000/svg"
   xmlns="http://www.w3.org/2000/svg"
   xmlns:sodipodi="http://sodipodi.sourceforge.net/DTD/sodipodi-0.dtd"
   xmlns:inkscape="http://www.inkscape.org/namespaces/inkscape"
   version="1.1"
   id="Capa_1"
   x="0px"
   y="0px"
   viewBox="0 0 512 512"
   style="enable-background:new 0 0 512 512;"
   xml:space="preserve"
   sodipodi:docname="grafico.svg"
   inkscape:version="0.92.1 r15371"><metadata
     id="metadata109"><rdf:RDF><cc:Work
         rdf:about=""><dc:format>image/svg+xml</dc:format><dc:type
           rdf:resource="http://purl.org/dc/dcmitype/StillImage" /></cc:Work></rdf:RDF></metadata><defs
     id="defs107" /><sodipodi:namedview
     pagecolor="#ffffff"
     bordercolor="#666666"
     borderopacity="1"
     objecttolerance="10"
     gridtolerance="10"
     guidetolerance="10"
     inkscape:pageopacity="0"
     inkscape:pageshadow="2"
     inkscape:window-width="1366"
     inkscape:window-height="706"
     id="namedview105"
     showgrid="false"
     inkscape:zoom="0.4609375"
     inkscape:cx="256"
     inkscape:cy="256"
     inkscape:window-x="-8"
     inkscape:window-y="-8"
     inkscape:window-maximized="1"
     inkscape:current-layer="Capa_1" /><g
     id="g6"
     style="fill:#ffffff"><g
       id="g4"
       style="fill:#ffffff"><path
         d="M501.333,490.667H10.667C4.779,490.667,0,495.445,0,501.333C0,507.221,4.779,512,10.667,512h490.667    c5.888,0,10.667-4.779,10.667-10.667C512,495.445,507.221,490.667,501.333,490.667z"
         id="path2"
         style="fill:#ffffff" /></g></g><g
     id="g12"
     style="fill:#ffffff"><g
       id="g10"
       style="fill:#ffffff"><path
         d="M96,362.667H32c-5.888,0-10.667,4.779-10.667,10.667v128C21.333,507.221,26.112,512,32,512h64    c5.888,0,10.667-4.779,10.667-10.667v-128C106.667,367.445,101.888,362.667,96,362.667z M85.333,490.667H42.667V384h42.667    V490.667z"
         id="path8"
         style="fill:#ffffff" /></g></g><g
     id="g18"
     style="fill:#ffffff"><g
       id="g16"
       style="fill:#ffffff"><path
         d="M224,256h-64c-5.888,0-10.667,4.779-10.667,10.667v234.667c0,5.888,4.779,10.667,10.667,10.667h64    c5.888,0,10.667-4.779,10.667-10.667V266.667C234.667,260.779,229.888,256,224,256z M213.333,490.667h-42.667V277.333h42.667    V490.667z"
         id="path14"
         style="fill:#ffffff" /></g></g><g
     id="g24"
     style="fill:#ffffff"><g
       id="g22"
       style="fill:#ffffff"><path
         d="M352,298.667h-64c-5.888,0-10.667,4.779-10.667,10.667v192c0,5.888,4.779,10.667,10.667,10.667h64    c5.888,0,10.667-4.779,10.667-10.667v-192C362.667,303.445,357.888,298.667,352,298.667z M341.333,490.667h-42.667V320h42.667    V490.667z"
         id="path20"
         style="fill:#ffffff" /></g></g><g
     id="g30"
     style="fill:#ffffff"><g
       id="g28"
       style="fill:#ffffff"><path
         d="M480,170.667h-64c-5.888,0-10.667,4.779-10.667,10.667v320c0,5.888,4.779,10.667,10.667,10.667h64    c5.888,0,10.667-4.779,10.667-10.667v-320C490.667,175.445,485.888,170.667,480,170.667z M469.333,490.667h-42.667V192h42.667    V490.667z"
         id="path26"
         style="fill:#ffffff" /></g></g><g
     id="g36"
     style="fill:#ffffff"><g
       id="g34"
       style="fill:#ffffff"><path
         d="M64,192c-23.531,0-42.667,19.136-42.667,42.667c0,23.531,19.136,42.667,42.667,42.667    c23.531,0,42.667-19.136,42.667-42.667C106.667,211.136,87.531,192,64,192z M64,256c-11.776,0-21.333-9.579-21.333-21.333    c0-11.755,9.557-21.333,21.333-21.333s21.333,9.579,21.333,21.333C85.333,246.421,75.776,256,64,256z"
         id="path32"
         style="fill:#ffffff" /></g></g><g
     id="g42"
     style="fill:#ffffff"><g
       id="g40"
       style="fill:#ffffff"><path
         d="M192,85.333c-23.531,0-42.667,19.136-42.667,42.667c0,23.531,19.136,42.667,42.667,42.667s42.667-19.136,42.667-42.667    C234.667,104.469,215.531,85.333,192,85.333z M192,149.333c-11.776,0-21.333-9.579-21.333-21.333    c0-11.755,9.557-21.333,21.333-21.333s21.333,9.579,21.333,21.333C213.333,139.755,203.776,149.333,192,149.333z"
         id="path38"
         style="fill:#ffffff" /></g></g><g
     id="g48"
     style="fill:#ffffff"><g
       id="g46"
       style="fill:#ffffff"><path
         d="M320,128c-23.531,0-42.667,19.136-42.667,42.667c0,23.531,19.136,42.667,42.667,42.667    c23.531,0,42.667-19.136,42.667-42.667C362.667,147.136,343.531,128,320,128z M320,192c-11.776,0-21.333-9.579-21.333-21.333    c0-11.755,9.557-21.333,21.333-21.333s21.333,9.579,21.333,21.333C341.333,182.421,331.776,192,320,192z"
         id="path44"
         style="fill:#ffffff" /></g></g><g
     id="g54"
     style="fill:#ffffff"><g
       id="g52"
       style="fill:#ffffff"><path
         d="M448,0c-23.531,0-42.667,19.136-42.667,42.667c0,23.531,19.136,42.667,42.667,42.667    c23.531,0,42.667-19.136,42.667-42.667C490.667,19.136,471.531,0,448,0z M448,64c-11.776,0-21.333-9.579-21.333-21.333    c0-11.755,9.557-21.333,21.333-21.333s21.333,9.579,21.333,21.333C469.333,54.421,459.776,64,448,64z"
         id="path50"
         style="fill:#ffffff" /></g></g><g
     id="g60"
     style="fill:#ffffff"><g
       id="g58"
       style="fill:#ffffff"><path
         d="M432.939,57.728c-4.16-4.16-10.923-4.16-15.083,0l-82.773,82.773c-4.16,4.16-4.16,10.923,0,15.083    c2.091,2.069,4.821,3.115,7.552,3.115c2.709,0,5.44-1.024,7.531-3.115l82.773-82.773    C437.099,68.651,437.099,61.888,432.939,57.728z"
         id="path56"
         style="fill:#ffffff" /></g></g><g
     id="g66"
     style="fill:#ffffff"><g
       id="g64"
       style="fill:#ffffff"><path
         d="M294.208,146.048l-68.523-19.541c-5.739-1.664-11.563,1.664-13.163,7.339c-1.621,5.675,1.664,11.563,7.317,13.184    l68.523,19.541c0.981,0.277,1.963,0.405,2.923,0.405c4.651,0,8.917-3.051,10.261-7.744    C303.168,153.579,299.883,147.669,294.208,146.048z"
         id="path62"
         style="fill:#ffffff" /></g></g><g
     id="g72"
     style="fill:#ffffff"><g
       id="g70"
       style="fill:#ffffff"><path
         d="M175.36,141.291c-3.669-4.608-10.368-5.355-14.976-1.707l-80.427,64.128c-4.608,3.691-5.376,10.389-1.685,14.997    c2.112,2.645,5.227,4.011,8.341,4.011c2.325,0,4.672-0.768,6.635-2.304l80.427-64.128    C178.283,152.597,179.051,145.899,175.36,141.291z"
         id="path68"
         style="fill:#ffffff" /></g></g><g
     id="g74" /><g
     id="g76" /><g
     id="g78" /><g
     id="g80" /><g
     id="g82" /><g
     id="g84" /><g
     id="g86" /><g
     id="g88" /><g
     id="g90" /><g
     id="g92" /><g
     id="g94" /><g
     id="g96" /><g
     id="g98" /><g
     id="g100" /><g
     id="g102" /></svg>